<mxfile host="app.diagrams.net" agent="Mozilla/5.0 (Windows NT 10.0; Win64; x64) AppleWebKit/537.36 (KHTML, like Gecko) Chrome/141.0.0.0 Safari/537.36 Edg/141.0.0.0" version="28.2.8">
  <diagram name="Page-1" id="2YBvvXClWsGukQMizWep">
    <mxGraphModel dx="1418" dy="794" grid="1" gridSize="10" guides="1" tooltips="1" connect="1" arrows="1" fold="1" page="1" pageScale="1" pageWidth="850" pageHeight="1100" math="0" shadow="0">
      <root>
        <mxCell id="0" />
        <mxCell id="1" parent="0" />
        <mxCell id="aM9ryv3xv72pqoxQDRHE-1" value=":GUI" style="shape=umlLifeline;perimeter=lifelinePerimeter;whiteSpace=wrap;html=1;container=0;dropTarget=0;collapsible=0;recursiveResize=0;outlineConnect=0;portConstraint=eastwest;newEdgeStyle={&quot;edgeStyle&quot;:&quot;elbowEdgeStyle&quot;,&quot;elbow&quot;:&quot;vertical&quot;,&quot;curved&quot;:0,&quot;rounded&quot;:0};" parent="1" vertex="1">
          <mxGeometry x="111" y="48" width="100" height="992" as="geometry" />
        </mxCell>
        <mxCell id="aM9ryv3xv72pqoxQDRHE-2" value="" style="html=1;points=[];perimeter=orthogonalPerimeter;outlineConnect=0;targetShapes=umlLifeline;portConstraint=eastwest;newEdgeStyle={&quot;edgeStyle&quot;:&quot;elbowEdgeStyle&quot;,&quot;elbow&quot;:&quot;vertical&quot;,&quot;curved&quot;:0,&quot;rounded&quot;:0};" parent="aM9ryv3xv72pqoxQDRHE-1" vertex="1">
          <mxGeometry x="45" y="70" width="10" height="850" as="geometry" />
        </mxCell>
        <mxCell id="aM9ryv3xv72pqoxQDRHE-3" value="dispatch" style="html=1;verticalAlign=bottom;startArrow=oval;endArrow=block;startSize=8;edgeStyle=elbowEdgeStyle;elbow=vertical;curved=0;rounded=0;" parent="aM9ryv3xv72pqoxQDRHE-1" target="aM9ryv3xv72pqoxQDRHE-2" edge="1">
          <mxGeometry relative="1" as="geometry">
            <mxPoint x="-15" y="70" as="sourcePoint" />
          </mxGeometry>
        </mxCell>
        <mxCell id="aM9ryv3xv72pqoxQDRHE-5" value=":ControllerClass" style="shape=umlLifeline;perimeter=lifelinePerimeter;whiteSpace=wrap;html=1;container=0;dropTarget=0;collapsible=0;recursiveResize=0;outlineConnect=0;portConstraint=eastwest;newEdgeStyle={&quot;edgeStyle&quot;:&quot;elbowEdgeStyle&quot;,&quot;elbow&quot;:&quot;vertical&quot;,&quot;curved&quot;:0,&quot;rounded&quot;:0};" parent="1" vertex="1">
          <mxGeometry x="354" y="48" width="100" height="992" as="geometry" />
        </mxCell>
        <mxCell id="aM9ryv3xv72pqoxQDRHE-6" value="" style="html=1;points=[];perimeter=orthogonalPerimeter;outlineConnect=0;targetShapes=umlLifeline;portConstraint=eastwest;newEdgeStyle={&quot;edgeStyle&quot;:&quot;elbowEdgeStyle&quot;,&quot;elbow&quot;:&quot;vertical&quot;,&quot;curved&quot;:0,&quot;rounded&quot;:0};" parent="aM9ryv3xv72pqoxQDRHE-5" vertex="1">
          <mxGeometry x="45" y="100" width="10" height="810" as="geometry" />
        </mxCell>
        <mxCell id="aM9ryv3xv72pqoxQDRHE-7" value="" style="html=1;verticalAlign=bottom;endArrow=block;edgeStyle=elbowEdgeStyle;elbow=vertical;curved=0;rounded=0;" parent="1" source="aM9ryv3xv72pqoxQDRHE-2" target="aM9ryv3xv72pqoxQDRHE-6" edge="1">
          <mxGeometry relative="1" as="geometry">
            <mxPoint x="266" y="138" as="sourcePoint" />
            <Array as="points">
              <mxPoint x="209" y="148" />
              <mxPoint x="251" y="128" />
            </Array>
          </mxGeometry>
        </mxCell>
        <mxCell id="0jZ7-tW0BVTjiJO53gmQ-3" value="managePromoCodes()" style="edgeLabel;html=1;align=center;verticalAlign=middle;resizable=0;points=[];" parent="aM9ryv3xv72pqoxQDRHE-7" vertex="1" connectable="0">
          <mxGeometry x="-0.0645" y="3" relative="1" as="geometry">
            <mxPoint y="-7" as="offset" />
          </mxGeometry>
        </mxCell>
        <mxCell id="aM9ryv3xv72pqoxQDRHE-8" value="display &quot;Existing Promo Codes&quot;" style="html=1;verticalAlign=bottom;endArrow=open;dashed=1;endSize=8;edgeStyle=elbowEdgeStyle;elbow=vertical;curved=0;rounded=0;" parent="1" edge="1">
          <mxGeometry relative="1" as="geometry">
            <mxPoint x="166" y="248.0000000000001" as="targetPoint" />
            <Array as="points">
              <mxPoint x="264" y="248" />
            </Array>
            <mxPoint x="399" y="248" as="sourcePoint" />
          </mxGeometry>
        </mxCell>
        <mxCell id="VEuW4mEXxXxEv6BpwXh5-1" value="Admin" style="shape=umlActor;verticalLabelPosition=bottom;verticalAlign=top;html=1;" parent="1" vertex="1">
          <mxGeometry x="59" y="78" width="30" height="60" as="geometry" />
        </mxCell>
        <mxCell id="VEuW4mEXxXxEv6BpwXh5-5" value=":PromotionalCodes" style="shape=umlLifeline;perimeter=lifelinePerimeter;whiteSpace=wrap;html=1;container=0;dropTarget=0;collapsible=0;recursiveResize=0;outlineConnect=0;portConstraint=eastwest;newEdgeStyle={&quot;edgeStyle&quot;:&quot;elbowEdgeStyle&quot;,&quot;elbow&quot;:&quot;vertical&quot;,&quot;curved&quot;:0,&quot;rounded&quot;:0};" parent="1" vertex="1">
          <mxGeometry x="739" y="48" width="120" height="992" as="geometry" />
        </mxCell>
        <mxCell id="VEuW4mEXxXxEv6BpwXh5-6" value="" style="html=1;points=[];perimeter=orthogonalPerimeter;outlineConnect=0;targetShapes=umlLifeline;portConstraint=eastwest;newEdgeStyle={&quot;edgeStyle&quot;:&quot;elbowEdgeStyle&quot;,&quot;elbow&quot;:&quot;vertical&quot;,&quot;curved&quot;:0,&quot;rounded&quot;:0};" parent="VEuW4mEXxXxEv6BpwXh5-5" vertex="1">
          <mxGeometry x="55" y="326" width="10" height="304" as="geometry" />
        </mxCell>
        <mxCell id="0jZ7-tW0BVTjiJO53gmQ-1" value=":DB" style="shape=umlLifeline;perimeter=lifelinePerimeter;whiteSpace=wrap;html=1;container=0;dropTarget=0;collapsible=0;recursiveResize=0;outlineConnect=0;portConstraint=eastwest;newEdgeStyle={&quot;edgeStyle&quot;:&quot;elbowEdgeStyle&quot;,&quot;elbow&quot;:&quot;vertical&quot;,&quot;curved&quot;:0,&quot;rounded&quot;:0};" parent="1" vertex="1">
          <mxGeometry x="922" y="48" width="120" height="992" as="geometry" />
        </mxCell>
        <mxCell id="0jZ7-tW0BVTjiJO53gmQ-4" value=":Code&lt;div&gt;Catalogue&lt;/div&gt;" style="shape=umlLifeline;perimeter=lifelinePerimeter;whiteSpace=wrap;html=1;container=0;dropTarget=0;collapsible=0;recursiveResize=0;outlineConnect=0;portConstraint=eastwest;newEdgeStyle={&quot;edgeStyle&quot;:&quot;elbowEdgeStyle&quot;,&quot;elbow&quot;:&quot;vertical&quot;,&quot;curved&quot;:0,&quot;rounded&quot;:0};" parent="1" vertex="1">
          <mxGeometry x="549" y="48" width="120" height="992" as="geometry" />
        </mxCell>
        <mxCell id="0jZ7-tW0BVTjiJO53gmQ-5" value="" style="html=1;points=[];perimeter=orthogonalPerimeter;outlineConnect=0;targetShapes=umlLifeline;portConstraint=eastwest;newEdgeStyle={&quot;edgeStyle&quot;:&quot;elbowEdgeStyle&quot;,&quot;elbow&quot;:&quot;vertical&quot;,&quot;curved&quot;:0,&quot;rounded&quot;:0};" parent="0jZ7-tW0BVTjiJO53gmQ-4" vertex="1">
          <mxGeometry x="55" y="118" width="10" height="562" as="geometry" />
        </mxCell>
        <mxCell id="0jZ7-tW0BVTjiJO53gmQ-6" value="" style="html=1;verticalAlign=bottom;endArrow=block;edgeStyle=elbowEdgeStyle;elbow=vertical;curved=0;rounded=0;" parent="1" edge="1">
          <mxGeometry relative="1" as="geometry">
            <mxPoint x="409" y="168" as="sourcePoint" />
            <Array as="points">
              <mxPoint x="452" y="168" />
              <mxPoint x="494" y="148" />
            </Array>
            <mxPoint x="604" y="168" as="targetPoint" />
          </mxGeometry>
        </mxCell>
        <mxCell id="0jZ7-tW0BVTjiJO53gmQ-7" value="showPromoCodes()" style="edgeLabel;html=1;align=center;verticalAlign=middle;resizable=0;points=[];" parent="0jZ7-tW0BVTjiJO53gmQ-6" vertex="1" connectable="0">
          <mxGeometry x="-0.0645" y="3" relative="1" as="geometry">
            <mxPoint y="-7" as="offset" />
          </mxGeometry>
        </mxCell>
        <mxCell id="0jZ7-tW0BVTjiJO53gmQ-8" value="return PromoCodesList" style="html=1;verticalAlign=bottom;endArrow=open;dashed=1;endSize=8;edgeStyle=elbowEdgeStyle;elbow=vertical;curved=0;rounded=0;" parent="1" edge="1">
          <mxGeometry relative="1" as="geometry">
            <mxPoint x="409" y="207" as="targetPoint" />
            <Array as="points">
              <mxPoint x="499" y="207" />
            </Array>
            <mxPoint x="604" y="207.0000000000001" as="sourcePoint" />
          </mxGeometry>
        </mxCell>
        <mxCell id="0jZ7-tW0BVTjiJO53gmQ-9" value="" style="html=1;verticalAlign=bottom;endArrow=block;edgeStyle=elbowEdgeStyle;elbow=vertical;curved=0;rounded=0;" parent="1" edge="1">
          <mxGeometry relative="1" as="geometry">
            <mxPoint x="167" y="289" as="sourcePoint" />
            <Array as="points">
              <mxPoint x="210" y="289" />
              <mxPoint x="252" y="269" />
            </Array>
            <mxPoint x="400" y="289" as="targetPoint" />
          </mxGeometry>
        </mxCell>
        <mxCell id="0jZ7-tW0BVTjiJO53gmQ-10" value="addPromoCode(data)" style="edgeLabel;html=1;align=center;verticalAlign=middle;resizable=0;points=[];" parent="0jZ7-tW0BVTjiJO53gmQ-9" vertex="1" connectable="0">
          <mxGeometry x="-0.0645" y="3" relative="1" as="geometry">
            <mxPoint y="-7" as="offset" />
          </mxGeometry>
        </mxCell>
        <mxCell id="0jZ7-tW0BVTjiJO53gmQ-11" value="" style="html=1;verticalAlign=bottom;endArrow=block;edgeStyle=elbowEdgeStyle;elbow=vertical;curved=0;rounded=0;" parent="1" edge="1">
          <mxGeometry relative="1" as="geometry">
            <mxPoint x="409" y="328" as="sourcePoint" />
            <Array as="points">
              <mxPoint x="452" y="328" />
              <mxPoint x="494" y="308" />
            </Array>
            <mxPoint x="604" y="328" as="targetPoint" />
          </mxGeometry>
        </mxCell>
        <mxCell id="0jZ7-tW0BVTjiJO53gmQ-12" value="CheckExistingCode()" style="edgeLabel;html=1;align=center;verticalAlign=middle;resizable=0;points=[];" parent="0jZ7-tW0BVTjiJO53gmQ-11" vertex="1" connectable="0">
          <mxGeometry x="-0.0645" y="3" relative="1" as="geometry">
            <mxPoint y="-7" as="offset" />
          </mxGeometry>
        </mxCell>
        <mxCell id="0jZ7-tW0BVTjiJO53gmQ-17" value="" style="swimlane;startSize=0;" parent="1" vertex="1">
          <mxGeometry x="579" y="341" width="250" height="87" as="geometry" />
        </mxCell>
        <mxCell id="0jZ7-tW0BVTjiJO53gmQ-18" value="" style="html=1;verticalAlign=bottom;endArrow=block;edgeStyle=elbowEdgeStyle;elbow=vertical;curved=0;rounded=0;" parent="0jZ7-tW0BVTjiJO53gmQ-17" edge="1">
          <mxGeometry relative="1" as="geometry">
            <mxPoint x="35" y="34" as="sourcePoint" />
            <Array as="points">
              <mxPoint x="78" y="34" />
              <mxPoint x="120" y="14" />
            </Array>
            <mxPoint x="215" y="34" as="targetPoint" />
          </mxGeometry>
        </mxCell>
        <mxCell id="0jZ7-tW0BVTjiJO53gmQ-19" value="MatchCode()" style="edgeLabel;html=1;align=center;verticalAlign=middle;resizable=0;points=[];" parent="0jZ7-tW0BVTjiJO53gmQ-18" vertex="1" connectable="0">
          <mxGeometry x="-0.0645" y="3" relative="1" as="geometry">
            <mxPoint y="-7" as="offset" />
          </mxGeometry>
        </mxCell>
        <mxCell id="0jZ7-tW0BVTjiJO53gmQ-20" value="return isMatch" style="html=1;verticalAlign=bottom;endArrow=open;dashed=1;endSize=8;edgeStyle=elbowEdgeStyle;elbow=vertical;curved=0;rounded=0;" parent="0jZ7-tW0BVTjiJO53gmQ-17" edge="1">
          <mxGeometry relative="1" as="geometry">
            <mxPoint x="35" y="61" as="targetPoint" />
            <Array as="points">
              <mxPoint x="110" y="61" />
            </Array>
            <mxPoint x="215" y="61.000000000000114" as="sourcePoint" />
          </mxGeometry>
        </mxCell>
        <mxCell id="0jZ7-tW0BVTjiJO53gmQ-21" value="&lt;div style=&quot;text-align: center;&quot;&gt;&lt;span style=&quot;color: light-dark(rgb(0, 0, 0), rgb(255, 255, 255)); text-wrap-mode: nowrap; background-color: rgb(255, 255, 255);&quot;&gt;For each code&lt;/span&gt;&lt;/div&gt;" style="text;whiteSpace=wrap;html=1;strokeWidth=6;fontSize=12;" parent="0jZ7-tW0BVTjiJO53gmQ-17" vertex="1">
          <mxGeometry x="10" width="130" height="40" as="geometry" />
        </mxCell>
        <mxCell id="0jZ7-tW0BVTjiJO53gmQ-22" value="return existingCode" style="html=1;verticalAlign=bottom;endArrow=open;dashed=1;endSize=8;edgeStyle=elbowEdgeStyle;elbow=vertical;curved=0;rounded=0;" parent="1" edge="1">
          <mxGeometry relative="1" as="geometry">
            <mxPoint x="409" y="448" as="targetPoint" />
            <Array as="points">
              <mxPoint x="499" y="448" />
            </Array>
            <mxPoint x="604" y="448.0000000000001" as="sourcePoint" />
          </mxGeometry>
        </mxCell>
        <mxCell id="0jZ7-tW0BVTjiJO53gmQ-28" value="" style="swimlane;startSize=0;" parent="1" vertex="1">
          <mxGeometry x="329" y="471" width="690" height="537" as="geometry" />
        </mxCell>
        <mxCell id="0jZ7-tW0BVTjiJO53gmQ-34" value="" style="line;strokeWidth=1;html=1;" parent="0jZ7-tW0BVTjiJO53gmQ-28" vertex="1">
          <mxGeometry y="71" width="690" height="10" as="geometry" />
        </mxCell>
        <mxCell id="0jZ7-tW0BVTjiJO53gmQ-35" value="&lt;div style=&quot;&quot;&gt;&lt;span style=&quot;text-wrap-mode: nowrap; background-color: rgb(255, 255, 255);&quot;&gt;If exisitingCode is true&lt;/span&gt;&lt;/div&gt;" style="text;whiteSpace=wrap;html=1;fontSize=14;align=left;" parent="0jZ7-tW0BVTjiJO53gmQ-28" vertex="1">
          <mxGeometry x="13" y="12" width="195" height="40" as="geometry" />
        </mxCell>
        <mxCell id="0jZ7-tW0BVTjiJO53gmQ-37" value="&lt;div style=&quot;&quot;&gt;&lt;span style=&quot;text-wrap-mode: nowrap; background-color: rgb(255, 255, 255);&quot;&gt;else&lt;/span&gt;&lt;/div&gt;" style="text;whiteSpace=wrap;html=1;fontSize=14;align=center;" parent="0jZ7-tW0BVTjiJO53gmQ-28" vertex="1">
          <mxGeometry x="-28" y="83" width="130" height="40" as="geometry" />
        </mxCell>
        <mxCell id="0jZ7-tW0BVTjiJO53gmQ-38" value="" style="html=1;verticalAlign=bottom;endArrow=block;edgeStyle=elbowEdgeStyle;elbow=vertical;curved=0;rounded=0;" parent="0jZ7-tW0BVTjiJO53gmQ-28" target="VEuW4mEXxXxEv6BpwXh5-6" edge="1">
          <mxGeometry relative="1" as="geometry">
            <mxPoint x="80" y="117" as="sourcePoint" />
            <Array as="points">
              <mxPoint x="123" y="117" />
              <mxPoint x="165" y="97" />
            </Array>
            <mxPoint x="460" y="117" as="targetPoint" />
          </mxGeometry>
        </mxCell>
        <mxCell id="0jZ7-tW0BVTjiJO53gmQ-39" value="PromoCode(data)" style="edgeLabel;html=1;align=center;verticalAlign=middle;resizable=0;points=[];" parent="0jZ7-tW0BVTjiJO53gmQ-38" vertex="1" connectable="0">
          <mxGeometry x="-0.0645" y="3" relative="1" as="geometry">
            <mxPoint y="-7" as="offset" />
          </mxGeometry>
        </mxCell>
        <mxCell id="0jZ7-tW0BVTjiJO53gmQ-40" value="" style="edgeStyle=segmentEdgeStyle;endArrow=classic;html=1;curved=0;rounded=0;endSize=8;startSize=8;" parent="0jZ7-tW0BVTjiJO53gmQ-28" edge="1">
          <mxGeometry width="50" height="50" relative="1" as="geometry">
            <mxPoint x="474" y="137" as="sourcePoint" />
            <mxPoint x="474" y="177" as="targetPoint" />
            <Array as="points">
              <mxPoint x="540" y="137" />
              <mxPoint x="540" y="177" />
              <mxPoint x="474" y="177" />
            </Array>
          </mxGeometry>
        </mxCell>
        <mxCell id="0jZ7-tW0BVTjiJO53gmQ-41" value="checkValidity()" style="edgeLabel;html=1;align=center;verticalAlign=middle;resizable=0;points=[];" parent="0jZ7-tW0BVTjiJO53gmQ-28" vertex="1" connectable="0">
          <mxGeometry x="544" y="157" as="geometry" />
        </mxCell>
        <mxCell id="0jZ7-tW0BVTjiJO53gmQ-42" value="" style="html=1;verticalAlign=bottom;endArrow=block;edgeStyle=elbowEdgeStyle;elbow=vertical;curved=0;rounded=0;" parent="0jZ7-tW0BVTjiJO53gmQ-28" target="0jZ7-tW0BVTjiJO53gmQ-2" edge="1">
          <mxGeometry relative="1" as="geometry">
            <mxPoint x="80" y="287" as="sourcePoint" />
            <Array as="points">
              <mxPoint x="123" y="287" />
              <mxPoint x="165" y="267" />
            </Array>
            <mxPoint x="310" y="287" as="targetPoint" />
          </mxGeometry>
        </mxCell>
        <mxCell id="0jZ7-tW0BVTjiJO53gmQ-43" value="savePromoCode(data)" style="edgeLabel;html=1;align=center;verticalAlign=middle;resizable=0;points=[];" parent="0jZ7-tW0BVTjiJO53gmQ-42" vertex="1" connectable="0">
          <mxGeometry x="-0.0645" y="3" relative="1" as="geometry">
            <mxPoint y="-7" as="offset" />
          </mxGeometry>
        </mxCell>
        <mxCell id="0jZ7-tW0BVTjiJO53gmQ-2" value="" style="html=1;points=[];perimeter=orthogonalPerimeter;outlineConnect=0;targetShapes=umlLifeline;portConstraint=eastwest;newEdgeStyle={&quot;edgeStyle&quot;:&quot;elbowEdgeStyle&quot;,&quot;elbow&quot;:&quot;vertical&quot;,&quot;curved&quot;:0,&quot;rounded&quot;:0};" parent="0jZ7-tW0BVTjiJO53gmQ-28" vertex="1">
          <mxGeometry x="648" y="286" width="10" height="43" as="geometry" />
        </mxCell>
        <mxCell id="0jZ7-tW0BVTjiJO53gmQ-44" value="return success/failure" style="html=1;verticalAlign=bottom;endArrow=open;dashed=1;endSize=8;edgeStyle=elbowEdgeStyle;elbow=vertical;curved=0;rounded=0;" parent="0jZ7-tW0BVTjiJO53gmQ-28" source="0jZ7-tW0BVTjiJO53gmQ-2" edge="1">
          <mxGeometry relative="1" as="geometry">
            <mxPoint x="80" y="327.94999999999976" as="targetPoint" />
            <Array as="points">
              <mxPoint x="115" y="327.95" />
            </Array>
            <mxPoint x="690" y="327" as="sourcePoint" />
          </mxGeometry>
        </mxCell>
        <mxCell id="0jZ7-tW0BVTjiJO53gmQ-46" value="return &quot;PromoCode&quot;" style="html=1;verticalAlign=bottom;endArrow=open;dashed=1;endSize=8;edgeStyle=elbowEdgeStyle;elbow=vertical;curved=0;rounded=0;" parent="0jZ7-tW0BVTjiJO53gmQ-28" target="aM9ryv3xv72pqoxQDRHE-6" edge="1">
          <mxGeometry relative="1" as="geometry">
            <mxPoint x="90" y="207" as="targetPoint" />
            <Array as="points">
              <mxPoint x="164" y="205" />
            </Array>
            <mxPoint x="464" y="205" as="sourcePoint" />
          </mxGeometry>
        </mxCell>
        <mxCell id="0jZ7-tW0BVTjiJO53gmQ-47" value="" style="html=1;verticalAlign=bottom;endArrow=block;edgeStyle=elbowEdgeStyle;elbow=vertical;curved=0;rounded=0;" parent="0jZ7-tW0BVTjiJO53gmQ-28" edge="1">
          <mxGeometry relative="1" as="geometry">
            <mxPoint x="80" y="247" as="sourcePoint" />
            <Array as="points">
              <mxPoint x="123" y="247" />
              <mxPoint x="165" y="227" />
            </Array>
            <mxPoint x="275" y="247" as="targetPoint" />
          </mxGeometry>
        </mxCell>
        <mxCell id="0jZ7-tW0BVTjiJO53gmQ-48" value="AddToCatalogue(PromoCode)" style="edgeLabel;html=1;align=center;verticalAlign=middle;resizable=0;points=[];" parent="0jZ7-tW0BVTjiJO53gmQ-47" vertex="1" connectable="0">
          <mxGeometry x="-0.0645" y="3" relative="1" as="geometry">
            <mxPoint y="-7" as="offset" />
          </mxGeometry>
        </mxCell>
        <mxCell id="0jZ7-tW0BVTjiJO53gmQ-36" value="display &quot;Code Already exists&quot;" style="html=1;verticalAlign=bottom;endArrow=open;dashed=1;endSize=8;edgeStyle=elbowEdgeStyle;elbow=vertical;curved=0;rounded=0;align=center;" parent="1" edge="1">
          <mxGeometry relative="1" as="geometry">
            <mxPoint x="165" y="528.0000000000001" as="targetPoint" />
            <Array as="points">
              <mxPoint x="263" y="528" />
            </Array>
            <mxPoint x="398" y="528" as="sourcePoint" />
          </mxGeometry>
        </mxCell>
        <mxCell id="0jZ7-tW0BVTjiJO53gmQ-55" value="" style="swimlane;startSize=0;" parent="1" vertex="1">
          <mxGeometry x="354" y="818" width="315" height="150" as="geometry" />
        </mxCell>
        <mxCell id="0jZ7-tW0BVTjiJO53gmQ-57" value="&lt;span style=&quot;text-wrap-mode: nowrap; background-color: rgb(255, 255, 255);&quot;&gt;If success&lt;/span&gt;" style="text;whiteSpace=wrap;html=1;fontSize=14;align=left;" parent="0jZ7-tW0BVTjiJO53gmQ-55" vertex="1">
          <mxGeometry x="13" y="12" width="195" height="40" as="geometry" />
        </mxCell>
        <mxCell id="0jZ7-tW0BVTjiJO53gmQ-58" value="&lt;div style=&quot;&quot;&gt;&lt;span style=&quot;text-wrap-mode: nowrap; background-color: rgb(255, 255, 255);&quot;&gt;else&lt;/span&gt;&lt;/div&gt;" style="text;whiteSpace=wrap;html=1;fontSize=14;align=center;" parent="0jZ7-tW0BVTjiJO53gmQ-55" vertex="1">
          <mxGeometry x="-28" y="83" width="130" height="40" as="geometry" />
        </mxCell>
        <mxCell id="0jZ7-tW0BVTjiJO53gmQ-56" value="" style="line;strokeWidth=1;html=1;" parent="0jZ7-tW0BVTjiJO53gmQ-55" vertex="1">
          <mxGeometry y="60" width="315" height="10" as="geometry" />
        </mxCell>
        <mxCell id="0jZ7-tW0BVTjiJO53gmQ-72" value="display &quot;Success&quot;" style="html=1;verticalAlign=bottom;endArrow=open;dashed=1;endSize=8;edgeStyle=elbowEdgeStyle;elbow=vertical;curved=0;rounded=0;align=center;" parent="1" source="aM9ryv3xv72pqoxQDRHE-6" target="aM9ryv3xv72pqoxQDRHE-2" edge="1">
          <mxGeometry relative="1" as="geometry">
            <mxPoint x="169" y="873" as="targetPoint" />
            <Array as="points">
              <mxPoint x="259" y="873" />
            </Array>
            <mxPoint x="394" y="873" as="sourcePoint" />
          </mxGeometry>
        </mxCell>
        <mxCell id="0jZ7-tW0BVTjiJO53gmQ-73" value="display &quot;Failure&quot;" style="html=1;verticalAlign=bottom;endArrow=open;dashed=1;endSize=8;edgeStyle=elbowEdgeStyle;elbow=vertical;curved=0;rounded=0;align=center;" parent="1" source="aM9ryv3xv72pqoxQDRHE-6" target="aM9ryv3xv72pqoxQDRHE-2" edge="1">
          <mxGeometry relative="1" as="geometry">
            <mxPoint x="169" y="948" as="targetPoint" />
            <Array as="points">
              <mxPoint x="258" y="948" />
            </Array>
            <mxPoint x="393" y="948" as="sourcePoint" />
          </mxGeometry>
        </mxCell>
      </root>
    </mxGraphModel>
  </diagram>
</mxfile>
